<svg width="20" height="20" viewBox="0 0 20 20" fill="none" xmlns="http://www.w3.org/2000/svg">
<path d="M19.2771 10.2285C19.2771 9.58524 19.2144 8.92129 19.11 8.29883H10.0649V11.9713H15.2455C15.0366 13.154 14.3472 14.1914 13.3236 14.8554L16.4153 17.2415C18.2326 15.5609 19.2771 13.1125 19.2771 10.2285Z" fill="#4280EF"/>
<path d="M10.0649 19.5238C12.6552 19.5238 14.8277 18.6731 16.4153 17.2207L13.3236 14.8554C12.4672 15.4363 11.36 15.7683 10.0649 15.7683C7.55819 15.7683 5.44837 14.0877 4.67546 11.8468L1.50028 14.2744C3.12965 17.4904 6.43017 19.5238 10.0649 19.5238Z" fill="#34A353"/>
<path d="M4.67546 11.8261C4.27856 10.6434 4.27856 9.35696 4.67546 8.17429L1.50028 5.72595C0.142474 8.42328 0.142474 11.5978 1.50028 14.2744L4.67546 11.8261Z" fill="#F6B704"/>
<path d="M10.0649 4.25281C11.4227 4.23206 12.7596 4.75078 13.7414 5.68447L16.4779 2.94565C14.7441 1.32725 12.4463 0.45581 10.0649 0.476558C6.43017 0.476558 3.12965 2.50993 1.50028 5.72597L4.67546 8.17431C5.44837 5.9127 7.55819 4.25281 10.0649 4.25281Z" fill="#E54335"/>
</svg>
