<svg width="360" height="234" viewBox="0 0 360 234" fill="none" xmlns="http://www.w3.org/2000/svg">
<rect width="360" height="208" fill="#007AFF"/>
<g clip-path="url(#clip0_1_1584)">
<path d="M281.718 234C316.115 234 344 231.44 344 228.281C344 225.123 316.115 222.563 281.718 222.563C247.32 222.563 219.436 225.123 219.436 228.281C219.436 231.44 247.32 234 281.718 234Z" fill="white"/>
<path opacity="0.1" d="M281.718 234C316.115 234 344 231.44 344 228.281C344 225.123 316.115 222.563 281.718 222.563C247.32 222.563 219.436 225.123 219.436 228.281C219.436 231.44 247.32 234 281.718 234Z" fill="#191919"/>
<path d="M178.327 143.244H158.474V148.991H178.327V143.244Z" fill="#DEDEDE"/>
<path opacity="0.05" d="M163.741 143.244H161.14V148.991H163.741V143.244Z" fill="#191919"/>
<path d="M175.79 144.493H164.974V147.899H175.79V144.493Z" fill="white"/>
<path d="M194.162 143.993L175.716 135.977L173.403 141.244L191.85 149.26L194.162 143.993Z" fill="#DEDEDE"/>
<path opacity="0.05" d="M194.162 143.993L175.716 135.977L173.403 141.244L191.85 149.26L194.162 143.993Z" fill="#191919"/>
<path d="M191.685 142.917L189.268 141.867L186.956 147.134L189.373 148.184L191.685 142.917Z" fill="white"/>
<path d="M187.62 142.514L177.57 138.146L176.2 141.267L186.25 145.635L187.62 142.514Z" fill="white"/>
<path opacity="0.05" d="M194.197 216.056H189.208V219.371H194.197V216.056Z" fill="#191919"/>
<path opacity="0.05" d="M143.189 216.056H138.2V219.371H143.189V216.056Z" fill="#191919"/>
<path d="M198.77 149.261H133.627V215.944H198.77V149.261Z" fill="#DEDEDE"/>
<path opacity="0.03" d="M198.77 149.261H133.627V215.944H198.77V149.261Z" fill="#191919"/>
<path d="M210.842 149.261H145.699V215.944H210.842V149.261Z" fill="#DEDEDE"/>
<path opacity="0.05" d="M206.268 216.056H201.279V219.371H206.268V216.056Z" fill="#191919"/>
<path opacity="0.05" d="M155.261 216.056H150.272V219.371H155.261V216.056Z" fill="#191919"/>
<path opacity="0.7" d="M208.397 152.384H148.145V165.195H208.397V152.384Z" fill="white"/>
<path opacity="0.7" d="M208.397 168.331H148.145V181.142H208.397V168.331Z" fill="white"/>
<path opacity="0.7" d="M208.397 184.277H148.145V197.089H208.397V184.277Z" fill="white"/>
<path opacity="0.05" d="M178.271 160.582C179.266 160.582 180.072 159.78 180.072 158.79C180.072 157.8 179.266 156.997 178.271 156.997C177.276 156.997 176.469 157.8 176.469 158.79C176.469 159.78 177.276 160.582 178.271 160.582Z" fill="#191919"/>
<path opacity="0.05" d="M178.271 176.529C179.266 176.529 180.072 175.726 180.072 174.736C180.072 173.746 179.266 172.944 178.271 172.944C177.276 172.944 176.469 173.746 176.469 174.736C176.469 175.726 177.276 176.529 178.271 176.529Z" fill="#191919"/>
<path opacity="0.05" d="M178.271 192.476C179.266 192.476 180.072 191.673 180.072 190.683C180.072 189.693 179.266 188.891 178.271 188.891C177.276 188.891 176.469 189.693 176.469 190.683C176.469 191.673 177.276 192.476 178.271 192.476Z" fill="#191919"/>
<path opacity="0.7" d="M208.397 200.584H148.145V213.395H208.397V200.584Z" fill="white"/>
<path opacity="0.05" d="M178.271 208.782C179.266 208.782 180.072 207.979 180.072 206.989C180.072 205.999 179.266 205.197 178.271 205.197C177.276 205.197 176.469 205.999 176.469 206.989C176.469 207.979 177.276 208.782 178.271 208.782Z" fill="#191919"/>
<path d="M156.752 83.0757H195.271V33.1875L156.752 33.1875V83.0757Z" fill="#DEDEDE"/>
<path d="M156.751 33.1875H155.502V83.0757H156.751V33.1875Z" fill="#DEDEDE"/>
<path opacity="0.05" d="M156.751 33.1875H155.502V83.0757H156.751V33.1875Z" fill="#191919"/>
<path opacity="0.05" d="M163.769 73.9879H188.254V42.2751H163.769V73.9879Z" fill="#191919"/>
<path opacity="0.03" d="M163.77 73.9879H165.045V42.2751H163.77V73.9879Z" fill="#191919"/>
<path d="M125.249 126.978H156.752V95.3438H125.249V126.978Z" fill="#DEDEDE"/>
<path opacity="0.05" d="M130.988 121.215H151.013V101.107H130.988V121.215Z" fill="#191919"/>
<path d="M125.249 95.3441H124V126.978H125.249V95.3441Z" fill="#DEDEDE"/>
<path opacity="0.05" d="M125.249 95.3441H124V126.978H125.249V95.3441Z" fill="#191919"/>
<path opacity="0.03" d="M130.989 121.215H132.264V101.107H130.989V121.215Z" fill="#191919"/>
<path d="M317.347 33.0687H236.963V113.053H317.347V33.0687Z" fill="#DEDEDE"/>
<path d="M236.962 33.0687H236.042V113.053H236.962V33.0687Z" fill="#DEDEDE"/>
<path opacity="0.05" d="M236.962 33.0687H236.042V113.053H236.962V33.0687Z" fill="#191919"/>
<path opacity="0.05" d="M256.437 88.1843V67.2577H273.664V79.4156H300.349V100.943H311.691V113.053H300.349H298.164H240.83V88.1843H256.437Z" fill="#191919"/>
<path opacity="0.34" d="M271.452 69.5298H258.907V71.8017H271.452V69.5298Z" fill="#F7F7F7"/>
<path opacity="0.34" d="M271.452 74.2383H258.907V76.5102H271.452V74.2383Z" fill="#F7F7F7"/>
<path opacity="0.34" d="M271.452 78.9467H258.907V81.2186H271.452V78.9467Z" fill="#F7F7F7"/>
<path opacity="0.34" d="M245.367 90.3898H243.055V92.6617H245.367V90.3898Z" fill="#F7F7F7"/>
<path opacity="0.34" d="M245.367 95.0983H243.055V97.3702H245.367V95.0983Z" fill="#F7F7F7"/>
<path opacity="0.34" d="M245.367 99.8064H243.055V102.078H245.367V99.8064Z" fill="#F7F7F7"/>
<path opacity="0.34" d="M249.645 90.3898H247.332V92.6617H249.645V90.3898Z" fill="#F7F7F7"/>
<path opacity="0.34" d="M249.645 95.0983H247.332V97.3702H249.645V95.0983Z" fill="#F7F7F7"/>
<path opacity="0.34" d="M249.645 99.8064H247.332V102.078H249.645V99.8064Z" fill="#F7F7F7"/>
<path opacity="0.34" d="M253.807 90.3898H251.494V92.6617H253.807V90.3898Z" fill="#F7F7F7"/>
<path opacity="0.34" d="M253.807 95.0983H251.494V97.3702H253.807V95.0983Z" fill="#F7F7F7"/>
<path opacity="0.34" d="M253.807 99.8064H251.494V102.078H253.807V99.8064Z" fill="#F7F7F7"/>
<path d="M236.963 72.6119H253.138V33.0685H254.475V72.6119H298.164V33.0685H299.502V72.6119H317.347V73.9429H299.502V113.053H298.164V73.9429H254.475V113.053H253.138V73.9429H236.963V72.6119Z" fill="white"/>
<path d="M320.549 112.956H233.761V115.616H320.549V112.956Z" fill="#DEDEDE"/>
<path opacity="0.1" d="M320.549 112.956H233.761V115.616H320.549V112.956Z" fill="#191919"/>
<path opacity="0.1" d="M233.76 112.956H232.508V115.616H233.76V112.956Z" fill="#191919"/>
<path opacity="0.1" d="M233.76 112.956H232.508V115.616H233.76V112.956Z" fill="#191919"/>
<path d="M303.563 126.659C291.257 126.659 281.281 129.999 281.281 134.12V143.003H325.846V134.12C325.846 129.999 315.869 126.659 303.563 126.659Z" fill="#EDF6FF"/>
<path opacity="0.49" d="M303.563 126.659C291.257 126.659 281.281 129.999 281.281 134.12V143.003H325.846V134.12C325.846 129.999 315.869 126.659 303.563 126.659Z" fill="white"/>
<path opacity="0.49" d="M319.775 134.121V143.003H281.28V134.121C281.28 130.344 289.658 127.223 300.527 126.73C311.398 127.223 319.775 130.344 319.775 134.121Z" fill="white"/>
<path d="M325.845 229.316H326.593L325.845 142.215L325.104 142.959L325.632 203.801L299.233 204.248L298.701 142.953L297.959 142.959L298.492 204.26L282.556 204.53L282.021 142.953L281.28 142.222L282.028 229.316L282.763 229.31L282.562 205.268L298.498 204.998L298.701 229.316L299.442 229.31L299.24 204.986L325.639 204.539L325.845 229.316Z" fill="#191919"/>
<path d="M258.633 216.275C258.633 216.275 257.308 223.11 250.876 223.491C244.445 223.872 245.839 228.97 245.839 228.97H270.417V216.752L258.633 216.275Z" fill="#EDF6FF"/>
<path d="M272.656 195.717C272.656 195.717 274.499 202.432 268.897 205.599C263.295 208.766 266.808 212.728 266.808 212.728L288.862 201.932L283.441 190.968L272.656 195.717Z" fill="#EDF6FF"/>
<path d="M270.322 200.155L253.705 137.767C252.445 130.875 254.342 127.888 257.266 124.986C262.404 119.887 283.691 109.035 283.691 109.035L309.229 108.965C316.001 108.965 322.658 115.609 322.658 122.347C322.658 129.085 315.774 134.799 309.002 134.799L277.554 137.923L286.079 195.047L270.322 200.155Z" fill="#191919"/>
<path d="M286.078 195.047L282.722 172.557L265.72 182.877L270.322 200.155L286.078 195.047Z" fill="#191919"/>
<path d="M289.932 121.66C289.932 121.66 279.197 124.04 268.564 134.62C262.118 141.034 262.646 152.642 263.614 174.968L274.174 159.447L285.756 138.662L289.932 121.66Z" fill="#191919"/>
<path d="M327.103 108.958L309.76 108.877L309.753 109.104H304.502C304.502 109.104 291.346 121.149 280.756 128.739C273.052 134.259 268.352 139.522 267.946 145.259C266.955 159.242 255.774 218.88 255.774 218.88L272.6 221.415L287.367 150.143C287.367 150.143 310.456 139.551 315.797 135.866C320.826 132.395 324.378 131.054 326.042 127.266C328.916 120.724 327.103 108.958 327.103 108.958Z" fill="#191919"/>
<path d="M307.646 113.305L279.51 113.676L295.293 123.056L308.426 116.308C308.742 116.139 308.992 115.869 309.136 115.541C309.28 115.214 309.31 114.848 309.22 114.502C309.13 114.156 308.926 113.85 308.641 113.633C308.355 113.416 308.005 113.301 307.646 113.305Z" fill="#191919"/>
<path opacity="0.2" d="M307.646 113.305L279.51 113.676L295.293 123.056L308.426 116.308C308.742 116.139 308.992 115.869 309.136 115.541C309.28 115.214 309.31 114.848 309.22 114.502C309.13 114.156 308.926 113.85 308.641 113.633C308.355 113.416 308.005 113.301 307.646 113.305Z" fill="white"/>
<path d="M279.671 63.0802L271.713 88.7376L255.773 109.504L265.084 120.14L284.048 99.0789C284.922 98.3919 285.605 97.4948 286.034 96.4721L286.329 95.7607L297.283 69.3894L279.671 63.0802Z" fill="#EDF6FF"/>
<path d="M291.931 35.8455C291.931 35.8455 288.724 33.4354 287.93 27.8923C287.314 23.6002 291.293 26.3809 291.293 26.3809C291.293 26.3809 290.881 23.2859 293.147 23.5931C295.413 23.9003 296.681 27.1514 296.681 27.1514" fill="#191919"/>
<path d="M304.859 23.9553C304.859 23.9553 316.103 25.1547 312.039 40.3154L311.044 40.3818L309.024 40.5165" fill="#191919"/>
<path d="M293.814 56.1485C293.863 56.1421 294.412 65.1985 304.985 64.4098C312.306 63.8641 314.916 56.1357 315.084 56.1357C314.295 55.9687 313.319 55.7154 312.932 55.6286C312.087 55.4335 311.322 54.9871 310.738 54.3487C310.154 53.7103 309.78 52.9102 309.664 52.0549C309.45 50.7711 309.813 44.203 309.702 42.9041L298.466 45.3997C298.623 48.1432 299.722 54.503 295.871 55.6286C295.229 55.8145 294.539 55.9867 293.814 56.1485Z" fill="#E98862"/>
<path opacity="0.52" d="M298.308 53.0293C298.484 52.4649 298.598 51.8829 298.646 51.2939C298.77 49.9498 298.745 48.5963 298.572 47.2575C300.856 46.9513 303.008 46.0136 304.783 44.5511C304.992 45.3179 306.14 48.6684 305.821 49.3958C305.221 50.773 302.399 53.0293 298.308 53.0293Z" fill="#191919"/>
<path d="M300.627 51.2368C305.061 50.8412 310.367 48.0541 310.443 42.0661L310.512 36.6632C310.589 30.6755 307.49 25.7813 301.824 25.7095C296.158 25.638 291.861 30.4384 291.784 36.4264L291.754 38.8182C291.758 39.6397 291.818 40.4599 291.934 41.2733C292.225 43.4251 292.675 46.6966 294.143 48.9097C295.529 50.999 297.795 51.4894 300.627 51.2368Z" fill="#E98862"/>
<path opacity="0.52" d="M298.571 45.7635C297.656 45.8047 296.744 45.6315 295.909 45.2577C295.874 45.2423 295.848 45.2143 295.834 45.1796C295.821 45.1449 295.821 45.1063 295.836 45.0721C295.851 45.0378 295.878 45.0107 295.913 44.9964C295.947 44.9821 295.986 44.9819 296.021 44.9958C297.82 45.7593 299.454 45.6477 300.746 44.6726C300.772 44.6521 300.799 44.633 300.827 44.6154C300.859 44.6001 300.896 44.5976 300.931 44.6083C300.965 44.619 300.994 44.6422 301.012 44.6731C301.03 44.7041 301.035 44.7406 301.027 44.7755C301.02 44.8103 300.999 44.8409 300.969 44.8613C300.959 44.8677 300.942 44.8807 300.92 44.8984C300.241 45.413 299.423 45.7143 298.571 45.7635Z" fill="#191919"/>
<path opacity="0.52" d="M298.612 47.1125C298.447 47.1226 298.281 47.1186 298.117 47.1006C298.098 47.0987 298.08 47.0931 298.063 47.0841C298.047 47.0752 298.032 47.0631 298.021 47.0486C298.009 47.0341 298 47.0174 297.995 46.9995C297.989 46.9816 297.988 46.9628 297.99 46.9442C297.992 46.9257 297.997 46.9077 298.006 46.8913C298.015 46.8749 298.027 46.8604 298.042 46.8487C298.056 46.8369 298.073 46.8282 298.091 46.8229C298.109 46.8176 298.128 46.8159 298.147 46.8179C299.137 46.9224 299.61 46.4711 299.63 46.4517C299.656 46.425 299.693 46.41 299.731 46.4099C299.769 46.4099 299.805 46.4248 299.832 46.4514C299.859 46.4781 299.874 46.5143 299.874 46.552C299.874 46.5897 299.859 46.6259 299.832 46.6526C299.491 46.9415 299.06 47.104 298.612 47.1125Z" fill="#191919"/>
<path d="M293.656 39.9696C294.041 39.9696 294.353 39.6587 294.353 39.2751C294.353 38.8916 294.041 38.5807 293.656 38.5807C293.27 38.5807 292.958 38.8916 292.958 39.2751C292.958 39.6587 293.27 39.9696 293.656 39.9696Z" fill="#191919"/>
<path d="M300.474 39.5439C300.86 39.5439 301.172 39.233 301.172 38.8495C301.172 38.4659 300.86 38.155 300.474 38.155C300.089 38.155 299.776 38.4659 299.776 38.8495C299.776 39.233 300.089 39.5439 300.474 39.5439Z" fill="#191919"/>
<path d="M310.068 43.8879C311.79 43.9098 313.209 42.0942 313.232 40.3806C313.254 38.667 311.87 37.7044 310.148 37.6827L309.246 38.8195L308.588 43.8692L310.068 43.8879Z" fill="#E98862"/>
<path d="M308.355 41.1329C308.355 41.1329 307.774 32.6601 305.191 32.1368C303.472 31.7883 299.301 34.2156 295.439 33.4825C293.749 33.1628 292.145 33.5779 291.982 34.3722C291.917 34.6868 290.864 30.167 293.51 26.7378C295.617 24.0081 302.512 23.2359 305.649 24.131C314.335 26.6104 310.502 38.0544 310.502 38.0544L310.115 40.9755L308.355 41.1329Z" fill="#191919"/>
<g opacity="0.52">
<path d="M297.53 43.764C297.526 43.7643 297.522 43.7643 297.519 43.764C296.964 43.7586 296.034 43.6876 296.037 43.2747C296.041 42.9324 297.02 39.2479 297.132 38.8289C297.141 38.7928 297.165 38.762 297.197 38.7433C297.23 38.7245 297.268 38.7194 297.305 38.7289C297.341 38.7385 297.372 38.762 297.391 38.7942C297.409 38.8265 297.415 38.8649 297.405 38.9009C296.97 40.5328 296.323 43.045 296.32 43.2781C296.374 43.3765 296.947 43.4778 297.521 43.4837C297.557 43.4845 297.592 43.499 297.618 43.5244C297.643 43.5498 297.658 43.5841 297.66 43.6201C297.661 43.6562 297.648 43.6913 297.624 43.7181C297.599 43.745 297.566 43.7616 297.53 43.7645V43.764Z" fill="#191919"/>
</g>
<path d="M295.637 35.5097C295.053 35.35 294.438 35.35 293.855 35.5097C293.568 35.5863 293.295 35.7054 293.044 35.8628C292.796 36.017 292.568 36.2017 292.367 36.4126C292.33 36.4502 292.309 36.5006 292.308 36.5533C292.307 36.606 292.327 36.657 292.363 36.6956C292.399 36.7343 292.448 36.7576 292.501 36.7608C292.554 36.764 292.606 36.7467 292.647 36.7127L292.659 36.7018C292.846 36.5299 293.053 36.3821 293.277 36.2619C293.497 36.1423 293.733 36.0564 293.978 36.0071C294.461 35.9064 294.962 35.9343 295.431 36.088L295.45 36.0949C295.527 36.1195 295.61 36.1134 295.683 36.0778C295.755 36.0423 295.81 35.9801 295.837 35.9045C295.864 35.8289 295.86 35.7459 295.826 35.6731C295.793 35.6002 295.732 35.5434 295.656 35.5146L295.637 35.5097Z" fill="#191919"/>
<path d="M299.766 35.858C300.21 35.6435 300.703 35.5494 301.195 35.5853C301.444 35.6014 301.69 35.6551 301.923 35.7446C302.161 35.8343 302.386 35.9532 302.594 36.0987L302.607 36.1076C302.652 36.1362 302.706 36.1466 302.758 36.1365C302.81 36.1265 302.856 36.0968 302.887 36.0537C302.918 36.0106 302.93 35.9573 302.922 35.9051C302.915 35.8529 302.887 35.8057 302.845 35.7734C302.617 35.5911 302.367 35.4381 302.1 35.3182C301.83 35.1955 301.544 35.1138 301.25 35.0758C300.65 34.9945 300.04 35.0758 299.483 35.3111C299.446 35.3272 299.412 35.3505 299.384 35.3797C299.356 35.4088 299.334 35.4432 299.319 35.4809C299.304 35.5185 299.296 35.5588 299.297 35.5993C299.298 35.6398 299.307 35.6797 299.323 35.7168C299.356 35.7918 299.417 35.8508 299.493 35.8808C299.531 35.8956 299.572 35.9029 299.612 35.9022C299.653 35.9015 299.693 35.8928 299.731 35.8767L299.748 35.8686L299.766 35.858Z" fill="#191919"/>
<path d="M299.483 26.7764C299.875 24.9098 299.16 23.1818 297.885 22.9168C296.61 22.6519 295.26 23.9503 294.868 25.8169C294.476 27.6835 295.191 29.4115 296.466 29.6764C297.74 29.9414 299.091 28.643 299.483 26.7764Z" fill="#191919"/>
<path d="M280.676 76.0539C281.009 79.9474 283.37 104.239 283.691 109.035H327.084C327.334 104.71 328.453 85.7955 329.399 77.3357C330.301 69.264 331.566 65.5909 330.527 63.0827C328.693 58.6586 322.857 56.6831 318.906 56.1507C316.493 55.8255 312.863 55.5927 312.863 55.5927C312.863 55.5927 312.556 61.7784 305.228 62.1226C295.253 62.5899 295.92 55.5927 295.87 55.5927C294.254 55.5927 285.458 56.762 283.259 58.1884C280.152 60.203 279.234 62.9487 279.198 65.4711C279.156 68.3762 280.298 71.6374 280.676 76.0539Z" fill="#EDF6FF"/>
<path d="M282.876 99.4624C282.845 99.4625 282.815 99.451 282.792 99.4303C282.769 99.4095 282.755 99.3809 282.752 99.3502L281.108 80.6404C281.106 80.6079 281.116 80.5756 281.137 80.5506C281.158 80.5256 281.188 80.51 281.221 80.5071C281.237 80.5054 281.253 80.507 281.269 80.5118C281.284 80.5166 281.299 80.5244 281.311 80.5349C281.324 80.5453 281.334 80.5581 281.342 80.5726C281.349 80.587 281.353 80.6028 281.355 80.619L282.999 99.3288C283.001 99.3613 282.991 99.3935 282.97 99.4184C282.949 99.4434 282.919 99.459 282.886 99.4619C282.883 99.4622 282.879 99.4624 282.876 99.4624Z" fill="#191919"/>
<path d="M286.023 110.33L291.981 105.52L290.978 105.802C290.653 105.887 290.307 105.845 290.011 105.686C289.715 105.527 289.491 105.262 289.384 104.944C289.335 104.779 289.319 104.605 289.34 104.433C289.36 104.261 289.415 104.096 289.502 103.946C289.589 103.796 289.705 103.666 289.845 103.562C289.984 103.459 290.143 103.385 290.312 103.344L302.829 100.315L303.906 104.282C304.241 105.514 304.198 106.818 303.783 108.025C303.368 109.233 302.601 110.29 301.578 111.061L296.94 114.544C296.703 114.729 296.408 114.827 296.107 114.822C295.805 114.816 295.514 114.707 295.284 114.512C295.08 114.332 294.939 114.092 294.882 113.827C294.824 113.561 294.854 113.284 294.966 113.037C294.946 113.031 294.928 113.02 294.914 113.004C294.901 112.989 294.893 112.972 294.889 112.953C294.885 112.934 294.886 112.914 294.891 112.895L294.037 113.539C293.773 113.747 293.44 113.847 293.104 113.819C292.769 113.791 292.457 113.638 292.231 113.39C292.037 113.161 291.93 112.872 291.929 112.573C291.928 112.273 292.033 111.983 292.226 111.754C292.213 111.752 292.2 111.747 292.188 111.741L291.837 112.005C291.6 112.19 291.305 112.289 291.003 112.283C290.702 112.277 290.411 112.168 290.181 111.974C289.933 111.755 289.78 111.45 289.754 111.122C289.727 110.794 289.83 110.468 290.039 110.213C290.034 110.206 290.03 110.198 290.027 110.19L287.545 112.193C287.422 112.293 287.281 112.367 287.129 112.412C286.977 112.457 286.818 112.471 286.661 112.455C286.503 112.439 286.35 112.392 286.211 112.316C286.072 112.241 285.949 112.14 285.849 112.017C285.749 111.895 285.675 111.754 285.629 111.603C285.584 111.452 285.57 111.294 285.586 111.137C285.602 110.98 285.65 110.828 285.725 110.689C285.801 110.551 285.903 110.428 286.026 110.329L286.023 110.33Z" fill="#E98862"/>
<path opacity="0.2" d="M290.175 110.262C290.188 110.257 290.201 110.25 290.211 110.241L292.599 108.268C292.611 108.258 292.621 108.246 292.628 108.232C292.636 108.218 292.64 108.203 292.641 108.187C292.643 108.171 292.641 108.156 292.637 108.141C292.632 108.126 292.624 108.112 292.614 108.1C292.604 108.088 292.592 108.078 292.578 108.07C292.564 108.063 292.548 108.058 292.533 108.057C292.517 108.056 292.501 108.057 292.486 108.062C292.471 108.067 292.457 108.074 292.445 108.084L290.058 110.057C290.036 110.075 290.021 110.1 290.016 110.128C290.011 110.156 290.016 110.184 290.03 110.209C290.044 110.233 290.067 110.252 290.093 110.261C290.119 110.271 290.149 110.271 290.175 110.262Z" fill="#191919"/>
<path opacity="0.2" d="M292.279 111.752C292.292 111.748 292.304 111.741 292.314 111.732L294.203 110.196C294.228 110.176 294.243 110.147 294.247 110.115C294.25 110.084 294.24 110.052 294.22 110.028C294.2 110.003 294.171 109.988 294.139 109.984C294.107 109.981 294.076 109.991 294.051 110.011L292.162 111.547C292.14 111.565 292.126 111.59 292.12 111.618C292.115 111.645 292.12 111.674 292.134 111.699C292.148 111.723 292.17 111.742 292.197 111.752C292.223 111.762 292.252 111.762 292.279 111.752Z" fill="#191919"/>
<path opacity="0.2" d="M295.043 113.041C295.057 113.036 295.07 113.028 295.081 113.019L295.955 112.272C295.967 112.262 295.977 112.25 295.984 112.236C295.991 112.222 295.995 112.207 295.996 112.191C295.998 112.175 295.996 112.16 295.991 112.145C295.986 112.13 295.978 112.116 295.968 112.104C295.958 112.092 295.945 112.082 295.931 112.075C295.917 112.068 295.902 112.064 295.886 112.063C295.87 112.062 295.855 112.064 295.84 112.068C295.825 112.073 295.811 112.081 295.799 112.091L294.925 112.838C294.903 112.856 294.889 112.881 294.885 112.908C294.88 112.936 294.885 112.964 294.899 112.988C294.913 113.012 294.935 113.031 294.962 113.04C294.988 113.05 295.017 113.05 295.043 113.041Z" fill="#191919"/>
<path d="M338.684 98.5488L338.638 98.3469L330.717 63.4893L315.048 67.0138L321.23 94.2225L296.466 100.277L299.514 114.181L332.515 107.918C332.589 107.904 332.699 107.882 332.774 107.865C333.777 107.639 334.725 107.219 335.565 106.629C336.404 106.039 337.119 105.29 337.668 104.425C338.217 103.56 338.589 102.595 338.763 101.587C338.937 100.579 338.91 99.5466 338.684 98.5488Z" fill="#EDF6FF"/>
<path d="M296.345 100.304C296.338 100.273 296.344 100.24 296.361 100.213C296.378 100.186 296.405 100.167 296.436 100.159L321.09 94.134L317.082 76.5171C317.077 76.501 317.076 76.4842 317.078 76.4677C317.08 76.4512 317.086 76.4353 317.094 76.421C317.103 76.4067 317.114 76.3942 317.128 76.3844C317.141 76.3746 317.157 76.3677 317.173 76.364C317.19 76.3603 317.206 76.36 317.223 76.363C317.239 76.366 317.255 76.3723 317.269 76.3816C317.283 76.3908 317.295 76.4027 317.304 76.4167C317.313 76.4307 317.319 76.4463 317.322 76.4627L321.358 94.1975C321.365 94.229 321.36 94.2622 321.343 94.2899C321.326 94.3175 321.298 94.3373 321.267 94.345L296.611 100.37C296.611 100.37 296.776 101.087 296.823 101.329C296.827 101.361 296.818 101.392 296.798 101.417C296.778 101.442 296.749 101.458 296.717 101.462C296.686 101.465 296.654 101.456 296.629 101.437C296.604 101.417 296.588 101.388 296.584 101.357C296.527 101.091 296.345 100.304 296.345 100.304Z" fill="#191919"/>
<path d="M297.311 119.719L287.79 90.5964C287.622 90.0846 287.297 89.6386 286.859 89.3223C286.421 89.0061 285.894 88.8358 285.353 88.8358H246.562C246.158 88.8358 245.759 88.931 245.399 89.1137C245.039 89.2964 244.727 89.5614 244.489 89.8869C244.252 90.2125 244.095 90.5894 244.032 90.9868C243.969 91.3842 244.001 91.7909 244.126 92.1735L253.648 121.296C253.815 121.808 254.141 122.254 254.579 122.57C255.016 122.887 255.543 123.057 256.084 123.057H294.875C295.279 123.057 295.678 122.962 296.038 122.779C296.398 122.596 296.71 122.331 296.948 122.006C297.185 121.68 297.342 121.303 297.405 120.906C297.468 120.509 297.436 120.102 297.311 119.719Z" fill="#191919"/>
<path opacity="0.2" d="M297.311 119.719L287.79 90.5964C287.622 90.0846 287.297 89.6386 286.859 89.3223C286.421 89.0061 285.894 88.8358 285.353 88.8358H246.562C246.158 88.8358 245.759 88.931 245.399 89.1137C245.039 89.2964 244.727 89.5614 244.489 89.8869C244.252 90.2125 244.095 90.5894 244.032 90.9868C243.969 91.3842 244.001 91.7909 244.126 92.1735L253.648 121.296C253.815 121.808 254.141 122.254 254.579 122.57C255.016 122.887 255.543 123.057 256.084 123.057H294.875C295.279 123.057 295.678 122.962 296.038 122.779C296.398 122.596 296.71 122.331 296.948 122.006C297.185 121.68 297.342 121.303 297.405 120.906C297.468 120.509 297.436 120.102 297.311 119.719Z" fill="white"/>
<path d="M269.601 109.995C271.848 109.995 273.67 108.182 273.67 105.946C273.67 103.711 271.848 101.898 269.601 101.898C267.354 101.898 265.533 103.711 265.533 105.946C265.533 108.182 267.354 109.995 269.601 109.995Z" fill="white"/>
<path d="M231.302 25.0775H154.311C150.745 25.0775 147.853 27.9546 147.853 31.5037V124.505C147.853 128.054 150.745 130.931 154.311 130.931H231.302C234.869 130.931 237.76 128.054 237.76 124.505V31.5037C237.76 27.9546 234.869 25.0775 231.302 25.0775Z" fill="#191919"/>
<path d="M234.148 22.2458H157.157C153.59 22.2458 150.699 25.123 150.699 28.6721V121.673C150.699 125.222 153.59 128.099 157.157 128.099H234.148C237.715 128.099 240.606 125.222 240.606 121.673V28.6721C240.606 25.123 237.715 22.2458 234.148 22.2458Z" fill="white"/>
<path d="M234.148 128.345H157.157C155.379 128.343 153.675 127.639 152.418 126.389C151.161 125.138 150.453 123.442 150.452 121.673V28.6721C150.454 26.9032 151.161 25.2072 152.418 23.9564C153.675 22.7055 155.379 22.002 157.157 22H234.148C235.926 22.002 237.63 22.7056 238.887 23.9565C240.144 25.2073 240.851 26.9032 240.853 28.6721V121.673C240.851 123.442 240.144 125.138 238.887 126.388C237.63 127.639 235.926 128.343 234.148 128.345ZM157.157 22.4918C155.51 22.4937 153.932 23.1454 152.767 24.304C151.603 25.4627 150.948 27.0336 150.946 28.6721V121.673C150.948 123.311 151.603 124.882 152.767 126.041C153.932 127.199 155.51 127.851 157.157 127.853H234.148C235.795 127.851 237.373 127.199 238.538 126.041C239.702 124.882 240.357 123.311 240.359 121.673V28.6721C240.357 27.0336 239.702 25.4627 238.538 24.304C237.373 23.1454 235.795 22.4937 234.148 22.4918H157.157Z" fill="#191919"/>
<path d="M149.662 141.406C158.517 141.406 165.696 134.263 165.696 125.452C165.696 116.64 158.517 109.497 149.662 109.497C140.806 109.497 133.627 116.64 133.627 125.452C133.627 134.263 140.806 141.406 149.662 141.406Z" fill="#191919"/>
<path d="M146.333 123.37C146.122 123.37 145.92 123.286 145.77 123.138C145.621 122.989 145.537 122.788 145.537 122.578V118.743C145.537 116.623 147.387 114.898 149.662 114.898C151.936 114.898 153.786 116.623 153.786 118.743V122.315C153.788 122.42 153.769 122.524 153.73 122.622C153.691 122.72 153.632 122.809 153.558 122.884C153.484 122.959 153.396 123.018 153.298 123.059C153.201 123.1 153.096 123.121 152.99 123.121C152.885 123.121 152.78 123.1 152.683 123.059C152.585 123.018 152.497 122.959 152.423 122.884C152.349 122.809 152.29 122.72 152.251 122.622C152.212 122.524 152.193 122.42 152.195 122.315V118.743C152.195 117.497 151.058 116.482 149.662 116.482C148.266 116.482 147.129 117.497 147.129 118.743V122.578C147.129 122.788 147.045 122.989 146.896 123.138C146.746 123.286 146.544 123.37 146.333 123.37Z" fill="white"/>
<path d="M154.74 121.915H144.584C143.991 121.915 143.511 122.393 143.511 122.982V132.501C143.511 133.09 143.991 133.568 144.584 133.568H154.74C155.332 133.568 155.812 133.09 155.812 132.501V122.982C155.812 122.393 155.332 121.915 154.74 121.915Z" fill="white"/>
<path d="M148.651 126.799C148.65 126.988 148.704 127.173 148.804 127.333C148.905 127.493 149.048 127.622 149.219 127.704V129.25C149.219 129.367 149.266 129.478 149.348 129.561C149.431 129.643 149.543 129.689 149.66 129.689C149.778 129.689 149.89 129.643 149.973 129.561C150.055 129.478 150.102 129.367 150.102 129.25V127.704C150.264 127.626 150.403 127.506 150.503 127.356C150.603 127.206 150.66 127.033 150.67 126.853C150.68 126.674 150.641 126.495 150.558 126.336C150.475 126.176 150.35 126.042 150.197 125.947C150.044 125.851 149.868 125.798 149.688 125.794C149.507 125.789 149.329 125.832 149.171 125.919C149.013 126.006 148.881 126.133 148.79 126.288C148.698 126.443 148.649 126.619 148.649 126.799H148.651Z" fill="#191919"/>
<path d="M227.424 75.0635H163.88C162.363 75.0635 161.133 76.2871 161.133 77.7964V86.6605C161.133 88.1698 162.363 89.3934 163.88 89.3934H227.424C228.941 89.3934 230.171 88.1698 230.171 86.6605V77.7964C230.171 76.2871 228.941 75.0635 227.424 75.0635Z" fill="white"/>
<path d="M227.424 89.6392H163.88C163.087 89.6383 162.326 89.3241 161.764 88.7657C161.203 88.2072 160.887 87.4501 160.887 86.6603V77.7965C160.887 77.0067 161.203 76.2495 161.764 75.691C162.326 75.1325 163.087 74.8184 163.88 74.8174H227.424C228.218 74.8183 228.979 75.1325 229.54 75.691C230.102 76.2494 230.417 77.0067 230.418 77.7965V86.6603C230.417 87.4501 230.102 88.2073 229.54 88.7658C228.979 89.3242 228.218 89.6383 227.424 89.6392ZM163.88 75.3092C163.218 75.3099 162.582 75.5722 162.114 76.0385C161.645 76.5048 161.381 77.1371 161.381 77.7965V86.6603C161.382 87.3197 161.645 87.9519 162.114 88.4181C162.582 88.8844 163.218 89.1466 163.88 89.1473H227.424C228.087 89.1466 228.722 88.8844 229.191 88.4181C229.66 87.9519 229.923 87.3197 229.924 86.6603V77.7965C229.923 77.1371 229.66 76.5048 229.191 76.0385C228.723 75.5722 228.087 75.3099 227.424 75.3092H163.88Z" fill="#191919"/>
<path d="M227.424 95.5425H163.88C162.363 95.5425 161.133 96.7661 161.133 98.2754V107.139C161.133 108.649 162.363 109.872 163.88 109.872H227.424C228.941 109.872 230.171 108.649 230.171 107.139V98.2754C230.171 96.7661 228.941 95.5425 227.424 95.5425Z" fill="white"/>
<path d="M227.424 110.118H163.88C163.086 110.117 162.325 109.803 161.764 109.244C161.203 108.686 160.887 107.928 160.887 107.139V98.2755C160.887 97.4857 161.203 96.7286 161.764 96.1701C162.326 95.6117 163.087 95.2975 163.88 95.2966H227.424C228.218 95.2975 228.979 95.6116 229.54 96.17C230.102 96.7285 230.417 97.4857 230.418 98.2755V107.139C230.418 107.929 230.102 108.686 229.541 109.245C228.979 109.803 228.218 110.117 227.424 110.118ZM163.88 95.7885C163.218 95.7892 162.582 96.0514 162.114 96.5177C161.645 96.9839 161.382 97.6161 161.381 98.2755V107.139C161.382 107.798 161.645 108.43 162.114 108.896C162.582 109.363 163.218 109.625 163.88 109.626H227.424C228.087 109.625 228.722 109.363 229.191 108.896C229.66 108.43 229.923 107.798 229.924 107.139V98.2755C229.923 97.6161 229.66 96.9839 229.191 96.5176C228.722 96.0514 228.087 95.7891 227.424 95.7885H163.88Z" fill="#191919"/>
<path d="M195.652 64.4046C203.8 64.4046 210.406 57.8321 210.406 49.7244C210.406 41.6168 203.8 35.0443 195.652 35.0443C187.504 35.0443 180.899 41.6168 180.899 49.7244C180.899 57.8321 187.504 64.4046 195.652 64.4046Z" fill="white"/>
<path d="M195.652 64.6505C192.685 64.6505 189.785 63.7751 187.318 62.135C184.852 60.4949 182.929 58.1637 181.794 55.4364C180.658 52.709 180.361 49.7078 180.94 46.8125C181.519 43.9171 182.947 41.2575 185.045 39.1701C187.143 37.0826 189.816 35.6611 192.726 35.0851C195.636 34.5092 198.652 34.8048 201.393 35.9345C204.134 37.0642 206.477 38.9774 208.125 41.4319C209.773 43.8865 210.653 46.7723 210.653 49.7244C210.648 53.6817 209.067 57.4756 206.254 60.2738C203.442 63.0721 199.629 64.646 195.652 64.6505ZM195.652 35.2902C192.783 35.2902 189.979 36.1367 187.593 37.7228C185.207 39.3088 183.348 41.5632 182.25 44.2007C181.152 46.8382 180.865 49.7404 181.425 52.5404C181.984 55.3403 183.366 57.9123 185.395 59.9309C187.424 61.9496 190.008 63.3243 192.822 63.8813C195.636 64.4382 198.553 64.1524 201.204 63.0599C203.854 61.9674 206.12 60.1173 207.714 57.7436C209.308 55.3699 210.159 52.5792 210.159 49.7244C210.154 45.8975 208.625 42.2286 205.905 39.5226C203.186 36.8166 199.498 35.2945 195.652 35.2902Z" fill="#191919"/>
<path opacity="0.5" d="M210.078 49.7244C210.082 53.1222 208.871 56.4106 206.66 59.0004C205.298 57.4209 203.61 56.1532 201.709 55.2842C199.809 54.4152 197.743 53.9655 195.651 53.9659C193.56 53.9662 191.494 54.4167 189.594 55.2864C187.694 56.1561 186.006 57.4244 184.645 59.0043C183.144 57.2414 182.092 55.144 181.58 52.8903C181.068 50.6366 181.11 48.2933 181.703 46.0593C182.296 43.8253 183.422 41.7668 184.986 40.0586C186.55 38.3504 188.505 37.043 190.685 36.2475C192.865 35.4521 195.206 35.192 197.509 35.4894C199.812 35.7869 202.008 36.633 203.912 37.956C205.816 39.279 207.37 41.0397 208.444 43.0886C209.517 45.1374 210.078 47.4138 210.078 49.7244Z" fill="#EDF6FF"/>
<path d="M206.66 59.0004C205.306 60.5914 203.62 61.8698 201.719 62.7467C199.818 63.6237 197.748 64.0782 195.653 64.0785C193.558 64.0789 191.488 63.6252 189.587 62.7489C187.686 61.8726 185.999 60.5948 184.645 59.0044C186.006 57.4244 187.694 56.1561 189.594 55.2865C191.494 54.4168 193.56 53.9663 195.651 53.9659C197.743 53.9656 199.809 54.4153 201.709 55.2843C203.61 56.1533 205.298 57.421 206.66 59.0004Z" fill="white"/>
<path d="M195.653 51.2877C198.873 51.2877 201.484 48.6901 201.484 45.4857C201.484 42.2813 198.873 39.6836 195.653 39.6836C192.432 39.6836 189.822 42.2813 189.822 45.4857C189.822 48.6901 192.432 51.2877 195.653 51.2877Z" fill="white"/>
<g opacity="0.4">
<path d="M166.483 104.452C167.451 104.452 168.236 103.671 168.236 102.707C168.236 101.744 167.451 100.963 166.483 100.963C165.514 100.963 164.729 101.744 164.729 102.707C164.729 103.671 165.514 104.452 166.483 104.452Z" fill="#191919"/>
<path d="M171.969 104.452C172.937 104.452 173.722 103.671 173.722 102.707C173.722 101.744 172.937 100.963 171.969 100.963C171 100.963 170.215 101.744 170.215 102.707C170.215 103.671 171 104.452 171.969 104.452Z" fill="#191919"/>
<path d="M177.455 104.452C178.423 104.452 179.208 103.671 179.208 102.707C179.208 101.744 178.423 100.963 177.455 100.963C176.486 100.963 175.701 101.744 175.701 102.707C175.701 103.671 176.486 104.452 177.455 104.452Z" fill="#191919"/>
<path d="M182.941 104.452C183.909 104.452 184.694 103.671 184.694 102.707C184.694 101.744 183.909 100.963 182.941 100.963C181.972 100.963 181.187 101.744 181.187 102.707C181.187 103.671 181.972 104.452 182.941 104.452Z" fill="#191919"/>
<path d="M188.426 104.452C189.395 104.452 190.18 103.671 190.18 102.707C190.18 101.744 189.395 100.963 188.426 100.963C187.458 100.963 186.673 101.744 186.673 102.707C186.673 103.671 187.458 104.452 188.426 104.452Z" fill="#191919"/>
<path d="M193.912 104.452C194.881 104.452 195.666 103.671 195.666 102.707C195.666 101.744 194.881 100.963 193.912 100.963C192.944 100.963 192.159 101.744 192.159 102.707C192.159 103.671 192.944 104.452 193.912 104.452Z" fill="#191919"/>
<path d="M199.398 104.452C200.367 104.452 201.152 103.671 201.152 102.707C201.152 101.744 200.367 100.963 199.398 100.963C198.43 100.963 197.645 101.744 197.645 102.707C197.645 103.671 198.43 104.452 199.398 104.452Z" fill="#191919"/>
</g>
<g opacity="0.3">
<path d="M168.222 82.1233V82.7135H165.97V82.1233H168.222Z" fill="#191919"/>
<path d="M171.021 82.1233V82.7135H168.769V82.1233H171.021Z" fill="#191919"/>
<path d="M173.82 82.1233V82.7135H171.567V82.1233H173.82Z" fill="#191919"/>
<path d="M176.618 82.1233V82.7135H174.366V82.1233H176.618Z" fill="#191919"/>
<path d="M179.418 82.1233V82.7135H177.165V82.1233H179.418Z" fill="#191919"/>
<path d="M184.469 85.4533C183.968 85.7094 183.41 85.8345 182.847 85.817C181.351 85.817 180.084 84.7281 180.084 82.9859C180.084 81.1169 181.388 79.5017 183.412 79.5017C184.999 79.5017 186.066 80.6084 186.066 82.124C186.066 83.4852 185.299 84.2834 184.442 84.2834C184.078 84.2834 183.74 84.0375 183.768 83.4852H183.731C183.613 83.7244 183.43 83.926 183.203 84.067C182.976 84.2081 182.714 84.2831 182.446 84.2834C181.917 84.2834 181.461 83.857 181.461 83.1404C181.46 82.8577 181.515 82.5776 181.623 82.3162C181.732 82.0548 181.891 81.8173 182.092 81.6174C182.293 81.4175 182.531 81.2592 182.794 81.1514C183.057 81.0437 183.338 80.9888 183.622 80.9898C183.957 80.9849 184.29 81.0499 184.598 81.1804L184.288 82.8227C184.151 83.5112 184.261 83.8309 184.561 83.8391C185.027 83.8479 185.546 83.2309 185.546 82.1786C185.546 80.8629 184.753 79.9193 183.339 79.9193C181.853 79.9193 180.604 81.0896 180.604 82.9316C180.604 84.447 181.598 85.3815 182.948 85.3815C183.426 85.3925 183.9 85.2833 184.324 85.064L184.469 85.4533ZM183.967 81.5335C183.819 81.4902 183.666 81.4689 183.511 81.4701C182.709 81.4701 182.061 82.2231 182.061 83.1033C182.061 83.5024 182.262 83.7918 182.663 83.7918C183.192 83.7918 183.675 83.1205 183.775 82.5578L183.967 81.5335Z" fill="#191919"/>
<path d="M188.936 82.1233V82.7135H186.683V82.1233H188.936Z" fill="#191919"/>
<path d="M191.735 82.1233V82.7135H189.482V82.1233H191.735Z" fill="#191919"/>
<path d="M194.533 82.1233V82.7135H192.281V82.1233H194.533Z" fill="#191919"/>
</g>
</g>
<defs>
<clipPath id="clip0_1_1584">
<rect width="220" height="212" fill="white" transform="translate(124 22)"/>
</clipPath>
</defs>
</svg>
